<mxfile host="app.diagrams.net" agent="Mozilla/5.0 (Windows NT 10.0; Win64; x64) AppleWebKit/537.36 (KHTML, like Gecko) Chrome/139.0.0.0 Safari/537.36" version="28.1.0">
  <diagram name="Page-1" id="mZl_dv6M6F0q-DWZn7aN">
    <mxGraphModel dx="1042" dy="527" grid="1" gridSize="10" guides="1" tooltips="1" connect="1" arrows="1" fold="1" page="1" pageScale="1" pageWidth="850" pageHeight="1100" math="0" shadow="0">
      <root>
        <mxCell id="0" />
        <mxCell id="1" parent="0" />
        <mxCell id="75gAX3Yvoy_RMpak__Cr-1" value="Fixed Top Nav Bar" style="swimlane;whiteSpace=wrap;html=1;" parent="1" vertex="1">
          <mxGeometry x="40" y="10" width="760" height="820" as="geometry" />
        </mxCell>
        <mxCell id="75gAX3Yvoy_RMpak__Cr-17" value="" style="rounded=1;whiteSpace=wrap;html=1;fillColor=#dae8fc;fillStyle=auto;strokeColor=#6c8ebf;" parent="75gAX3Yvoy_RMpak__Cr-1" vertex="1">
          <mxGeometry x="68" y="80" width="625" height="175" as="geometry" />
        </mxCell>
        <mxCell id="75gAX3Yvoy_RMpak__Cr-13" value="Projects" style="text;html=1;align=center;verticalAlign=middle;whiteSpace=wrap;rounded=0;" parent="75gAX3Yvoy_RMpak__Cr-1" vertex="1">
          <mxGeometry x="358" y="30" width="55" height="30" as="geometry" />
        </mxCell>
        <mxCell id="75gAX3Yvoy_RMpak__Cr-15" value="Carousel" style="text;html=1;align=center;verticalAlign=middle;whiteSpace=wrap;rounded=0;" parent="75gAX3Yvoy_RMpak__Cr-1" vertex="1">
          <mxGeometry x="350" y="140" width="60" height="30" as="geometry" />
        </mxCell>
        <mxCell id="75gAX3Yvoy_RMpak__Cr-2" value="Nav Bar" style="shape=table;startSize=30;container=1;collapsible=0;childLayout=tableLayout;fixedRows=1;rowLines=0;fontStyle=0;strokeColor=default;fontSize=16;fillColor=default;" parent="75gAX3Yvoy_RMpak__Cr-1" vertex="1">
          <mxGeometry width="160" height="120" as="geometry" />
        </mxCell>
        <mxCell id="75gAX3Yvoy_RMpak__Cr-3" value="" style="shape=tableRow;horizontal=0;startSize=0;swimlaneHead=0;swimlaneBody=0;top=0;left=0;bottom=0;right=0;collapsible=0;dropTarget=0;fillColor=none;points=[[0,0.5],[1,0.5]];portConstraint=eastwest;strokeColor=inherit;fontSize=16;" parent="75gAX3Yvoy_RMpak__Cr-2" vertex="1">
          <mxGeometry y="30" width="160" height="30" as="geometry" />
        </mxCell>
        <mxCell id="75gAX3Yvoy_RMpak__Cr-4" value="1" style="shape=partialRectangle;html=1;whiteSpace=wrap;connectable=0;fillColor=none;top=0;left=0;bottom=0;right=0;overflow=hidden;pointerEvents=1;strokeColor=inherit;fontSize=16;" parent="75gAX3Yvoy_RMpak__Cr-3" vertex="1">
          <mxGeometry width="36" height="30" as="geometry">
            <mxRectangle width="36" height="30" as="alternateBounds" />
          </mxGeometry>
        </mxCell>
        <mxCell id="75gAX3Yvoy_RMpak__Cr-5" value="Projects" style="shape=partialRectangle;html=1;whiteSpace=wrap;connectable=0;fillColor=none;top=0;left=0;bottom=0;right=0;align=left;spacingLeft=6;overflow=hidden;strokeColor=inherit;fontSize=16;" parent="75gAX3Yvoy_RMpak__Cr-3" vertex="1">
          <mxGeometry x="36" width="124" height="30" as="geometry">
            <mxRectangle width="124" height="30" as="alternateBounds" />
          </mxGeometry>
        </mxCell>
        <mxCell id="75gAX3Yvoy_RMpak__Cr-6" value="" style="shape=tableRow;horizontal=0;startSize=0;swimlaneHead=0;swimlaneBody=0;top=0;left=0;bottom=0;right=0;collapsible=0;dropTarget=0;fillColor=none;points=[[0,0.5],[1,0.5]];portConstraint=eastwest;strokeColor=inherit;fontSize=16;" parent="75gAX3Yvoy_RMpak__Cr-2" vertex="1">
          <mxGeometry y="60" width="160" height="30" as="geometry" />
        </mxCell>
        <mxCell id="75gAX3Yvoy_RMpak__Cr-7" value="2" style="shape=partialRectangle;html=1;whiteSpace=wrap;connectable=0;fillColor=none;top=0;left=0;bottom=0;right=0;overflow=hidden;strokeColor=inherit;fontSize=16;" parent="75gAX3Yvoy_RMpak__Cr-6" vertex="1">
          <mxGeometry width="36" height="30" as="geometry">
            <mxRectangle width="36" height="30" as="alternateBounds" />
          </mxGeometry>
        </mxCell>
        <mxCell id="75gAX3Yvoy_RMpak__Cr-8" value="Links" style="shape=partialRectangle;html=1;whiteSpace=wrap;connectable=0;fillColor=none;top=0;left=0;bottom=0;right=0;align=left;spacingLeft=6;overflow=hidden;strokeColor=inherit;fontSize=16;" parent="75gAX3Yvoy_RMpak__Cr-6" vertex="1">
          <mxGeometry x="36" width="124" height="30" as="geometry">
            <mxRectangle width="124" height="30" as="alternateBounds" />
          </mxGeometry>
        </mxCell>
        <mxCell id="75gAX3Yvoy_RMpak__Cr-9" value="" style="shape=tableRow;horizontal=0;startSize=0;swimlaneHead=0;swimlaneBody=0;top=0;left=0;bottom=0;right=0;collapsible=0;dropTarget=0;fillColor=none;points=[[0,0.5],[1,0.5]];portConstraint=eastwest;strokeColor=inherit;fontSize=16;" parent="75gAX3Yvoy_RMpak__Cr-2" vertex="1">
          <mxGeometry y="90" width="160" height="30" as="geometry" />
        </mxCell>
        <mxCell id="75gAX3Yvoy_RMpak__Cr-10" value="3" style="shape=partialRectangle;html=1;whiteSpace=wrap;connectable=0;fillColor=none;top=0;left=0;bottom=0;right=0;overflow=hidden;strokeColor=inherit;fontSize=16;" parent="75gAX3Yvoy_RMpak__Cr-9" vertex="1">
          <mxGeometry width="36" height="30" as="geometry">
            <mxRectangle width="36" height="30" as="alternateBounds" />
          </mxGeometry>
        </mxCell>
        <mxCell id="75gAX3Yvoy_RMpak__Cr-11" value="Contacts" style="shape=partialRectangle;html=1;whiteSpace=wrap;connectable=0;fillColor=none;top=0;left=0;bottom=0;right=0;align=left;spacingLeft=6;overflow=hidden;strokeColor=inherit;fontSize=16;" parent="75gAX3Yvoy_RMpak__Cr-9" vertex="1">
          <mxGeometry x="36" width="124" height="30" as="geometry">
            <mxRectangle width="124" height="30" as="alternateBounds" />
          </mxGeometry>
        </mxCell>
        <mxCell id="75gAX3Yvoy_RMpak__Cr-22" value="Blender" style="swimlane;whiteSpace=wrap;html=1;" parent="75gAX3Yvoy_RMpak__Cr-1" vertex="1">
          <mxGeometry x="80" y="290" width="610" height="140" as="geometry" />
        </mxCell>
        <mxCell id="75gAX3Yvoy_RMpak__Cr-25" value="Entity" style="whiteSpace=wrap;html=1;align=center;" parent="75gAX3Yvoy_RMpak__Cr-22" vertex="1">
          <mxGeometry x="10" y="30" width="180" height="100" as="geometry" />
        </mxCell>
        <mxCell id="75gAX3Yvoy_RMpak__Cr-26" value="Entity" style="whiteSpace=wrap;html=1;align=center;" parent="75gAX3Yvoy_RMpak__Cr-22" vertex="1">
          <mxGeometry x="210" y="30" width="190" height="100" as="geometry" />
        </mxCell>
        <mxCell id="75gAX3Yvoy_RMpak__Cr-27" value="Entity" style="whiteSpace=wrap;html=1;align=center;" parent="75gAX3Yvoy_RMpak__Cr-22" vertex="1">
          <mxGeometry x="420" y="30" width="180" height="100" as="geometry" />
        </mxCell>
        <mxCell id="75gAX3Yvoy_RMpak__Cr-23" value="Unity" style="swimlane;whiteSpace=wrap;html=1;startSize=23;" parent="75gAX3Yvoy_RMpak__Cr-1" vertex="1">
          <mxGeometry x="80" y="450" width="610" height="140" as="geometry" />
        </mxCell>
        <mxCell id="75gAX3Yvoy_RMpak__Cr-28" value="Entity" style="whiteSpace=wrap;html=1;align=center;" parent="75gAX3Yvoy_RMpak__Cr-23" vertex="1">
          <mxGeometry x="210" y="30" width="190" height="100" as="geometry" />
        </mxCell>
        <mxCell id="75gAX3Yvoy_RMpak__Cr-29" value="Entity" style="whiteSpace=wrap;html=1;align=center;" parent="75gAX3Yvoy_RMpak__Cr-23" vertex="1">
          <mxGeometry x="420" y="30" width="180" height="100" as="geometry" />
        </mxCell>
        <mxCell id="75gAX3Yvoy_RMpak__Cr-30" value="Entity" style="whiteSpace=wrap;html=1;align=center;" parent="75gAX3Yvoy_RMpak__Cr-23" vertex="1">
          <mxGeometry x="10" y="30" width="180" height="100" as="geometry" />
        </mxCell>
        <mxCell id="75gAX3Yvoy_RMpak__Cr-24" value="Ideas" style="swimlane;whiteSpace=wrap;html=1;" parent="75gAX3Yvoy_RMpak__Cr-1" vertex="1">
          <mxGeometry x="80" y="620" width="610" height="140" as="geometry" />
        </mxCell>
        <mxCell id="75gAX3Yvoy_RMpak__Cr-31" value="Entity" style="whiteSpace=wrap;html=1;align=center;" parent="75gAX3Yvoy_RMpak__Cr-24" vertex="1">
          <mxGeometry x="10" y="30" width="180" height="100" as="geometry" />
        </mxCell>
        <mxCell id="75gAX3Yvoy_RMpak__Cr-32" value="Entity" style="whiteSpace=wrap;html=1;align=center;" parent="75gAX3Yvoy_RMpak__Cr-24" vertex="1">
          <mxGeometry x="210" y="30" width="190" height="100" as="geometry" />
        </mxCell>
        <mxCell id="75gAX3Yvoy_RMpak__Cr-33" value="Entity" style="whiteSpace=wrap;html=1;align=center;" parent="75gAX3Yvoy_RMpak__Cr-24" vertex="1">
          <mxGeometry x="420" y="30" width="180" height="100" as="geometry" />
        </mxCell>
        <mxCell id="qanW2tq9EHT8BtIfM7bt-1" value="Contact" style="text;html=1;align=center;verticalAlign=middle;whiteSpace=wrap;rounded=0;" vertex="1" parent="75gAX3Yvoy_RMpak__Cr-1">
          <mxGeometry x="350" y="770" width="60" height="30" as="geometry" />
        </mxCell>
      </root>
    </mxGraphModel>
  </diagram>
</mxfile>
